<svg 
 xmlns="http://www.w3.org/2000/svg"
 xmlns:xlink="http://www.w3.org/1999/xlink"
 width="40px" height="60px">
<path fill-rule="evenodd"  fill="rgb(228, 40, 80)"
 d="M22.823,0.0 C23.61,0.711 23.299,1.423 23.536,2.135 C23.774,2.135 24.12,2.135 24.250,2.135 C24.250,2.610 24.250,3.85 24.250,3.559 C24.487,3.559 24.725,3.559 24.963,3.559 C24.963,4.34 24.963,4.509 24.963,4.983 C25.438,5.220 25.914,5.458 26.389,5.695 C26.627,6.882 26.865,8.68 27.102,9.255 C27.578,9.492 28.53,9.730 28.529,9.967 C28.767,11.153 29.4,12.340 29.242,13.527 C29.718,13.764 30.193,14.1 30.669,14.239 C30.669,14.713 30.669,15.188 30.669,15.663 C30.906,15.663 31.144,15.663 31.382,15.663 C31.382,16.137 31.382,16.612 31.382,17.86 C31.620,17.86 31.857,17.86 32.95,17.86 C32.95,17.561 32.95,18.36 32.95,18.510 C32.333,18.510 32.571,18.510 32.808,18.510 C32.808,18.985 32.808,19.460 32.808,19.934 C33.284,20.172 33.759,20.409 34.235,20.646 C34.235,21.121 34.235,21.596 34.235,22.70 C34.473,22.70 34.710,22.70 34.948,22.70 C34.948,22.782 34.948,23.494 34.948,24.206 C35.423,24.443 35.899,24.681 36.375,24.918 C36.375,25.393 36.375,25.867 36.375,26.342 C36.612,26.342 36.850,26.342 37.88,26.342 C37.748,27.318 37.569,27.597 37.801,29.190 C36.719,29.924 34.887,32.343 34.235,33.461 C34.235,33.936 34.235,34.411 34.235,34.885 C33.759,35.123 33.284,35.360 32.808,35.597 C32.808,36.72 32.808,36.547 32.808,37.21 C32.571,37.21 32.333,37.21 32.95,37.21 C32.95,37.496 32.95,37.971 32.95,38.445 C31.857,38.445 31.620,38.445 31.382,38.445 C31.382,38.920 31.382,39.394 31.382,39.869 C31.144,39.869 30.906,39.869 30.669,39.869 C30.669,40.344 30.669,40.818 30.669,41.293 C30.193,41.530 29.718,41.768 29.242,42.5 C29.242,42.480 29.242,42.954 29.242,43.429 C29.4,43.429 28.767,43.429 28.529,43.429 C28.291,44.615 28.53,45.802 27.816,46.989 C27.578,46.989 27.340,46.989 27.102,46.989 C26.865,47.701 26.627,48.413 26.389,49.124 C25.914,49.362 25.438,49.599 24.963,49.836 C24.963,50.548 24.963,51.260 24.963,51.972 C24.487,52.210 24.12,52.447 23.536,52.684 C23.299,53.633 23.61,54.583 22.823,55.532 C22.348,55.769 21.872,56.7 21.397,56.244 C21.159,57.193 20.921,58.143 20.683,59.92 C20.208,59.329 19.732,59.567 19.257,59.804 C19.257,60.278 19.257,60.753 19.257,61.228 C19.19,61.228 18.781,61.228 18.544,61.228 C18.544,61.702 18.544,62.177 18.544,62.652 C18.306,62.652 18.68,62.652 17.830,62.652 C17.830,63.126 17.830,63.601 17.830,64.76 C17.593,64.76 17.355,64.76 17.117,64.76 C17.117,64.550 17.117,65.25 17.117,65.499 C16.879,65.499 16.642,65.499 16.404,65.499 C16.404,65.974 16.404,66.449 16.404,66.923 C15.928,67.161 15.453,67.398 14.977,67.635 C14.977,68.347 14.977,69.59 14.977,69.771 C14.502,70.9 14.26,70.246 13.551,70.483 C13.76,71.907 12.600,73.331 12.124,74.755 C11.649,74.992 11.173,75.230 10.698,75.467 C10.698,75.941 10.698,76.416 10.698,76.891 C10.223,77.128 9.747,77.365 9.272,77.603 C9.272,78.315 9.272,79.27 9.272,79.739 C8.796,79.976 8.321,80.213 7.845,80.451 C7.132,82.586 6.419,84.723 5.705,86.858 C4.517,86.858 3.328,86.858 2.139,86.858 C2.377,85.434 2.615,84.10 2.852,82.586 C3.90,82.586 3.328,82.586 3.566,82.586 C3.566,80.925 3.566,79.264 3.566,77.603 C3.803,77.603 4.41,77.603 4.279,77.603 C4.279,75.942 4.279,74.280 4.279,72.619 C4.517,72.619 4.754,72.619 4.992,72.619 C4.992,71.670 4.992,70.720 4.992,69.771 C5.230,69.771 5.468,69.771 5.705,69.771 C5.705,67.636 5.705,65.499 5.705,63.364 C5.943,63.364 6.181,63.364 6.419,63.364 C6.419,62.414 6.419,61.465 6.419,60.516 C6.656,60.516 6.894,60.516 7.132,60.516 C7.132,58.855 7.132,57.193 7.132,55.532 C7.370,55.532 7.607,55.532 7.845,55.532 C7.845,53.396 7.845,51.260 7.845,49.124 C8.83,49.124 8.321,49.124 8.558,49.124 C8.558,48.650 8.558,48.175 8.558,47.701 C8.796,47.701 9.34,47.701 9.272,47.701 C9.272,45.565 9.272,43.429 9.272,41.293 C9.509,41.293 9.747,41.293 9.985,41.293 C9.985,39.869 9.985,38.445 9.985,37.21 C10.223,37.21 10.460,37.21 10.698,37.21 C10.698,35.835 10.698,34.648 10.698,33.461 C10.936,33.461 11.174,33.461 11.411,33.461 C11.411,31.326 11.411,29.190 11.411,27.54 C11.649,27.54 11.887,27.54 12.124,27.54 C12.124,25.393 12.124,23.731 12.124,22.70 C12.362,22.70 12.600,22.70 12.838,22.70 C12.838,21.358 12.838,20.646 12.838,19.934 C13.75,19.934 13.313,19.934 13.551,19.934 C13.551,17.561 13.551,15.188 13.551,12.815 C13.789,12.815 14.26,12.815 14.264,12.815 C14.264,10.916 14.264,9.17 14.264,7.119 C14.502,7.119 14.740,7.119 14.977,7.119 C14.977,6.644 14.977,6.170 14.977,5.695 C15.215,5.695 15.453,5.695 15.691,5.695 C15.691,4.271 15.691,2.847 15.691,1.423 C18.56,0.173 18.806,0.41 22.823,0.0 ZM62.51,41.293 C61.576,41.293 61.100,41.293 60.624,41.293 C59.533,43.277 57.381,45.649 54.919,46.277 C54.294,48.795 47.450,55.600 44.933,56.244 C44.228,58.988 42.335,59.548 40.654,61.228 C37.848,64.32 31.514,72.363 27.816,73.331 C26.927,76.719 23.567,78.284 21.397,80.451 C17.117,84.722 12.838,88.994 8.558,93.266 C6.543,95.278 5.321,98.118 2.139,98.961 C2.139,99.436 2.139,99.911 2.139,100.385 C1.426,100.148 0.713,99.911 0.0,99.673 C0.411,98.586 0.543,98.505 0.713,96.826 C1.664,96.114 2.615,95.402 3.566,94.690 C3.566,93.978 3.566,93.266 3.566,92.554 C4.41,92.317 4.517,92.79 4.992,91.842 C4.992,91.367 4.992,90.893 4.992,90.418 C5.230,90.418 5.468,90.418 5.705,90.418 C5.705,89.943 5.705,89.469 5.705,88.994 C6.181,88.757 6.656,88.519 7.132,88.282 C7.370,87.96 7.607,85.909 7.845,84.722 C8.83,84.722 8.321,84.722 8.558,84.722 C8.796,84.10 9.34,83.298 9.272,82.586 C9.747,82.349 10.223,82.112 10.698,81.875 C10.936,80.688 11.174,79.501 11.411,78.315 C11.887,78.77 12.362,77.840 12.838,77.603 C13.75,76.654 13.313,75.704 13.551,74.755 C14.26,74.518 14.502,74.280 14.977,74.43 C14.977,73.568 14.977,73.94 14.977,72.619 C15.215,72.619 15.453,72.619 15.691,72.619 C15.691,72.144 15.691,71.670 15.691,71.195 C15.928,71.195 16.166,71.195 16.404,71.195 C16.404,70.721 16.404,70.246 16.404,69.771 C16.642,69.771 16.879,69.771 17.117,69.771 C17.117,69.297 17.117,68.822 17.117,68.347 C17.355,68.347 17.593,68.347 17.830,68.347 C17.830,67.873 17.830,67.398 17.830,66.923 C18.306,66.686 18.781,66.449 19.257,66.211 C19.257,65.737 19.257,65.262 19.257,64.788 C19.732,64.550 20.208,64.313 20.683,64.76 C20.921,63.126 21.159,62.177 21.397,61.228 C21.634,61.228 21.872,61.228 22.110,61.228 C22.348,60.279 22.585,59.329 22.823,58.380 C24.55,56.137 25.239,56.212 25.676,52.684 C26.151,52.684 26.627,52.684 27.102,52.684 C27.397,49.691 28.868,48.997 29.955,46.989 C29.955,46.514 29.955,46.39 29.955,45.565 C30.193,45.565 30.431,45.565 30.669,45.565 C30.906,44.616 31.144,43.666 31.382,42.717 C31.857,42.480 32.333,42.242 32.808,42.5 C33.46,41.56 33.284,40.106 33.522,39.157 C33.997,38.920 34.473,38.682 34.948,38.445 C34.948,37.971 34.948,37.496 34.948,37.21 C35.423,36.784 35.899,36.547 36.375,36.309 C36.375,35.597 36.375,34.885 36.375,34.173 C36.612,34.173 36.850,34.173 37.88,34.173 C37.88,33.699 37.88,33.224 37.88,32.750 C37.563,32.512 38.39,32.275 38.514,32.38 C38.752,31.88 38.990,30.139 39.227,29.190 C39.703,28.952 40.178,28.715 40.654,28.478 C40.654,27.766 40.654,27.54 40.654,26.342 C41.129,26.105 41.605,25.867 42.80,25.630 C42.556,24.206 43.31,22.782 43.507,21.358 C43.982,21.121 44.458,20.884 44.933,20.646 C44.933,20.172 44.933,19.697 44.933,19.222 C46.51,17.750 47.942,17.771 50.639,17.798 C51.109,18.684 51.780,18.790 52.66,19.222 C52.66,19.697 52.66,20.172 52.66,20.646 C52.541,20.884 53.17,21.121 53.492,21.358 C53.730,22.545 53.968,23.732 54.205,24.918 C54.681,25.155 55.156,25.393 55.632,25.630 C55.870,26.816 56.107,28.3 56.345,29.190 C56.821,29.427 57.296,29.664 57.772,29.902 C58.9,30.851 58.247,31.800 58.485,32.750 C58.960,32.987 59.436,33.224 59.911,33.461 C59.911,34.173 59.911,34.885 59.911,35.597 C60.149,35.597 60.387,35.597 60.624,35.597 C61.652,37.583 61.917,38.282 62.51,41.293 ZM96.999,107.505 C96.49,107.742 95.97,107.980 94.147,108.217 C93.909,108.691 93.671,109.166 93.433,109.641 C92.720,109.641 92.7,109.641 91.294,109.641 C91.56,110.115 90.818,110.590 90.580,111.65 C89.154,111.539 87.727,112.14 86.301,112.489 C86.63,112.963 85.825,113.438 85.588,113.913 C84.399,114.150 83.210,114.387 82.22,114.625 C81.784,115.99 81.546,115.574 81.308,116.48 C80.833,116.48 80.357,116.48 79.882,116.48 C79.882,116.286 79.882,116.523 79.882,116.760 C79.406,116.760 78.931,116.760 78.455,116.760 C78.455,116.998 78.455,117.235 78.455,117.472 C77.980,117.472 77.504,117.472 77.29,117.472 C77.29,117.710 77.29,117.947 77.29,118.184 C76.553,118.184 76.78,118.184 75.602,118.184 C75.365,118.659 75.127,119.134 74.889,119.608 C73.938,119.845 72.987,120.83 72.36,120.320 C71.799,120.795 71.561,121.269 71.323,121.744 C70.372,121.981 69.421,122.219 68.470,122.456 C68.232,122.931 67.995,123.405 67.757,123.880 C67.281,123.880 66.806,123.880 66.330,123.880 C66.330,124.117 66.330,124.355 66.330,124.592 C65.855,124.592 65.379,124.592 64.904,124.592 C64.904,124.829 64.904,125.67 64.904,125.304 C64.428,125.304 63.953,125.304 63.477,125.304 C63.477,125.541 63.477,125.779 63.477,126.16 C63.2,126.16 62.526,126.16 62.51,126.16 C61.813,126.490 61.575,126.965 61.338,127.440 C60.149,127.677 58.960,127.914 57.772,128.152 C57.772,128.389 57.772,128.626 57.772,128.864 C57.58,129.101 56.345,129.338 55.632,129.576 C55.394,130.50 55.156,130.525 54.919,130.999 C50.402,130.999 45.884,130.999 41.367,130.999 C41.367,130.525 41.367,130.50 41.367,129.576 C38.414,128.992 36.467,127.220 34.235,126.16 C33.284,125.779 32.333,125.541 31.382,125.304 C31.144,124.829 30.906,124.355 30.669,123.880 C29.718,123.643 28.767,123.405 27.816,123.168 C27.578,122.693 27.340,122.219 27.102,121.744 C26.627,121.744 26.151,121.744 25.676,121.744 C25.438,121.269 25.200,120.795 24.963,120.320 C23.536,119.846 22.110,119.371 20.683,118.896 C18.428,117.659 18.515,116.506 14.977,116.48 C14.977,115.574 14.977,115.99 14.977,114.625 C13.789,114.387 12.600,114.150 11.411,113.913 C11.174,113.438 10.936,112.963 10.698,112.489 C9.747,112.251 8.796,112.14 7.845,111.777 C7.845,111.539 7.845,111.302 7.845,111.65 C7.370,111.65 6.894,111.65 6.419,111.65 C6.419,110.827 6.419,110.590 6.419,110.353 C5.943,110.353 5.468,110.353 4.992,110.353 C2.576,109.39 4.9,108.542 0.0,108.217 C0.0,107.30 0.0,105.844 0.0,104.657 C0.237,104.657 0.475,104.657 0.713,104.657 C2.60,103.4 2.19,104.512 2.852,101.809 C3.328,101.809 3.803,101.809 4.279,101.809 C4.814,99.512 6.989,97.386 9.272,96.826 C9.272,96.351 9.272,95.876 9.272,95.402 C9.747,95.402 10.223,95.402 10.698,95.402 C12.22,93.158 14.211,92.539 14.977,89.706 C15.453,89.706 15.928,89.706 16.404,89.706 C16.404,89.231 16.404,88.757 16.404,88.282 C16.642,88.282 16.879,88.282 17.117,88.282 C18.306,86.858 19.495,85.434 20.683,84.10 C21.159,84.10 21.634,84.10 22.110,84.10 C22.585,83.298 23.61,82.586 23.536,81.875 C24.12,81.637 24.487,81.400 24.963,81.163 C24.963,80.688 24.963,80.213 24.963,79.739 C26.933,79.224 26.558,79.540 27.102,77.603 C27.578,77.603 28.53,77.603 28.529,77.603 C29.556,75.848 30.767,75.618 31.382,73.331 C31.857,73.331 32.333,73.331 32.808,73.331 C33.562,70.580 34.412,71.195 36.375,69.771 C36.612,69.297 36.850,68.822 37.88,68.347 C38.990,66.686 40.892,65.25 42.794,63.364 C42.794,62.889 42.794,62.414 42.794,61.940 C43.269,61.940 43.745,61.940 44.220,61.940 C44.736,59.973 44.419,60.347 46.360,59.804 C47.115,57.53 47.964,57.669 49.926,56.244 C52.65,53.871 54.206,51.497 56.345,49.124 C57.58,48.650 57.772,48.175 58.485,47.701 C58.485,47.226 58.485,46.751 58.485,46.277 C58.960,46.277 59.436,46.277 59.911,46.277 C61.223,41.459 68.455,40.116 69.897,34.885 C70.372,34.885 70.848,34.885 71.323,34.885 C71.839,32.919 71.522,33.293 73.463,32.750 C74.347,29.41 78.493,26.274 83.448,26.342 C84.434,28.202 84.710,27.547 84.875,30.614 C86.174,32.153 84.773,34.718 85.588,37.21 C85.825,37.21 86.63,37.21 86.301,37.21 C86.301,37.496 86.301,37.971 86.301,38.445 C86.539,38.445 86.776,38.445 87.14,38.445 C87.14,40.344 87.14,42.242 87.14,44.141 C87.252,44.141 87.490,44.141 87.727,44.141 C87.727,46.276 87.727,48.413 87.727,50.548 C87.965,50.548 88.203,50.548 88.441,50.548 C88.441,51.23 88.441,51.498 88.441,51.972 C88.678,51.972 88.916,51.972 89.154,51.972 C89.154,53.871 89.154,55.770 89.154,57.668 C89.392,57.668 89.629,57.668 89.867,57.668 C89.867,59.566 89.867,61.465 89.867,63.364 C90.105,63.364 90.343,63.364 90.580,63.364 C90.580,64.76 90.580,64.788 90.580,65.499 C90.818,65.499 91.56,65.499 91.294,65.499 C91.294,67.635 91.294,69.771 91.294,71.907 C91.531,71.907 91.769,71.907 92.7,71.907 C92.7,72.619 92.7,73.331 92.7,74.43 C92.245,74.43 92.482,74.43 92.720,74.43 C92.720,75.941 92.720,77.840 92.720,79.739 C92.958,79.739 93.196,79.739 93.433,79.739 C93.433,81.400 93.433,83.61 93.433,84.722 C95.513,91.508 96.892,98.657 96.999,107.505 Z"/>
</svg>